<?xml version="1.0" encoding="utf-8"?>
<svg width="943px" height="727px" viewbox="0 0 943 727" version="1.1" xmlns:xlink="http://www.w3.org/1999/xlink" xmlns="http://www.w3.org/2000/svg">
  <defs>
    <path d="M0 0L943 0L943 726.85L0 726.85L0 0Z" id="path_1" />
    <clipPath id="mask_1">
      <use xlink:href="#path_1" />
    </clipPath>
  </defs>
  <g id="undraw_Taken_if77">
    <path d="M0 0L943 0L943 726.85L0 726.85L0 0Z" id="Background" fill="none" fill-rule="evenodd" stroke="none" />
    <g clip-path="url(#mask_1)">
      <g id="BuleSoucoupe" transform="translate(326.78998 21.100006)">
        <path d="M0 110.94C0 49.6695 64.1173 0 143.21 0C222.303 0 286.42 49.6695 286.42 110.94C286.42 172.21 222.303 221.88 143.21 221.88C64.1173 221.88 0 172.21 0 110.94Z" transform="translate(0 0.269989)" id="Ellipse" fill="#04B4E0" fill-rule="evenodd" stroke="none" />
        <path d="M22.79 123.54C22.79 62.27 86.9 12.6 165.99 12.6C190.545 12.4648 214.855 17.4829 237.35 27.33C212.18 10.33 179.25 0 143.21 0C64.1201 0 0 49.67 0 110.94C0 152.08 28.91 187.99 71.86 207.15C41.79 186.81 22.79 156.9 22.79 123.54L22.79 123.54Z" transform="translate(0.35998535 0)" id="Shape" fill="#FFFFFF" fill-opacity="0.1" fill-rule="evenodd" stroke="none" />
        <path d="M0 7C0 3.13401 15.2223 0 34 0C52.7777 0 68 3.13401 68 7C68 10.866 52.7777 14 34 14C15.2223 14 0 10.866 0 7Z" transform="translate(111.359985 23.899994)" id="Ellipse-2" fill="#000000" fill-opacity="0.05" fill-rule="evenodd" stroke="none" />
        <path d="M0 7C0 3.13401 15.2223 0 34 0C52.7777 0 68 3.13401 68 7C68 10.866 52.7777 14 34 14C15.2223 14 0 10.866 0 7Z" transform="translate(46.359985 53.899994)" id="Ellipse-3" fill="#000000" fill-opacity="0.05" fill-rule="evenodd" stroke="none" />
        <path d="M0 7C0 3.13401 15.2223 0 34 0C52.7777 0 68 3.13401 68 7C68 10.866 52.7777 14 34 14C15.2223 14 0 10.866 0 7Z" transform="translate(171.35995 66.899994)" id="Ellipse-4" fill="#000000" fill-opacity="0.05" fill-rule="evenodd" stroke="none" />
      </g>
      <path d="M317.52 0L476.28 274.98L635.04 549.95C635.04 549.95 593.21 531.1 553.52 531.1C513.83 531.1 476.28 549.95 476.28 549.95C476.28 549.95 433.71 531.1 394.02 531.1C354.33 531.1 317.52 549.95 317.52 549.95C317.52 549.95 277.21 531.1 237.52 531.1C197.83 531.1 186.667 549.95 158.76 549.95C128.556 549.95 122.21 531.1 82.52 531.1C42.83 531.1 0 549.95 0 549.95L158.76 274.98L317.52 0L317.52 0Z" transform="translate(152.48001 176.9)" id="Polygon" fill="#04B4E0" fill-opacity="0.2" fill-rule="evenodd" stroke="none" />
      <g id="GhostSoucoupe" transform="translate(381.88812 450.654)">
        <path d="M39.3219 169.556C42.2419 165.556 47.2519 162.756 52.0519 163.846C56.8519 164.936 61.4019 169.506 65.6719 167.216C71.5119 164.096 67.3719 152.626 76.8519 151.776C78.8274 151.645 80.8055 151.988 82.6219 152.776C86.6219 154.406 92.8819 156.246 95.9619 152.576C97.7719 150.416 97.6419 147.126 99.3719 144.886C101.372 142.286 105.182 141.956 108.432 142.456L108.592 142.506C114.862 145.096 121.722 140.796 121.232 134.036C120.602 125.036 123.462 116.556 124.082 114.716L135.962 79.406C146.481 47.8936 129.568 13.8028 98.1119 3.11597L98.1119 3.11603C66.6027 -7.38977 32.5247 9.52643 21.8419 40.976L3.11188 96.506C-6.99353 126.823 8.26965 159.765 37.9319 171.656C38.3538 170.929 38.8179 170.228 39.3219 169.556L39.3219 169.556Z" id="Shape" fill="#FFFFFF" fill-rule="evenodd" stroke="none" />
        <path d="M0 6.51C0 2.91463 2.91463 0 6.51 0C10.1054 0 13.02 2.91463 13.02 6.51C13.02 10.1054 10.1054 13.02 6.51 13.02C2.91463 13.02 0 10.1054 0 6.51Z" transform="translate(54.951874 28.915985)" id="Circle" fill="#000000" fill-opacity="0.2" fill-rule="evenodd" stroke="none" />
        <path d="M0 6.51C0 2.91463 2.91463 0 6.51 0C10.1054 0 13.02 2.91463 13.02 6.51C13.02 10.1054 10.1054 13.02 6.51 13.02C2.91463 13.02 0 10.1054 0 6.51Z" transform="translate(91.97186 41.365997)" id="Circle" fill="#000000" fill-opacity="0.2" fill-rule="evenodd" stroke="none" />
        <path d="M3.79929 18.7327C0.391693 17.5859 -0.976929 12.5148 0.74234 7.40604C2.46164 2.2973 6.61777 -0.91452 10.0254 0.232269C13.4329 1.37906 14.8016 6.45016 13.0823 11.5589C11.363 16.6676 7.20685 19.8795 3.79929 18.7327Z" transform="translate(64.78082 56.91104)" id="Ellipse" fill="#E0E0E0" fill-rule="evenodd" stroke="none" />
      </g>
      <path d="M0 9.76C0 4.3697 4.3697 0 9.76 0C15.1503 0 19.52 4.3697 19.52 9.76C19.52 15.1503 15.1503 19.52 9.76 19.52C4.3697 19.52 0 15.1503 0 9.76Z" transform="translate(580.77 477.75998)" id="Circle" fill="#FFFFFF" fill-rule="evenodd" stroke="none" />
      <path d="M0 4.88C0 2.18485 2.18485 0 4.88 0C7.57515 0 9.76 2.18485 9.76 4.88C9.76 7.57515 7.57515 9.76 4.88 9.76C2.18485 9.76 0 7.57515 0 4.88Z" transform="translate(616.57007 467.29)" id="Circle" fill="#FFFFFF" fill-rule="evenodd" stroke="none" />
      <g id="GhostSoucoupe" transform="translate(394.88812 57.65393)" opacity="0.5">
        <path d="M39.3219 169.556C42.2419 165.556 47.2519 162.756 52.0519 163.846C56.8519 164.936 61.4019 169.506 65.6719 167.216C71.5119 164.096 67.3719 152.626 76.8519 151.776C78.8274 151.645 80.8055 151.988 82.6219 152.776C86.6219 154.406 92.8819 156.246 95.9619 152.576C97.7719 150.416 97.6419 147.126 99.3719 144.886C101.372 142.286 105.182 141.956 108.432 142.456L108.592 142.506C114.862 145.096 121.722 140.796 121.232 134.036C120.602 125.036 123.462 116.556 124.082 114.716L135.962 79.406C146.481 47.8937 129.568 13.8028 98.1119 3.11603L98.1119 3.11603C66.6027 -7.38975 32.5247 9.5264 21.8419 40.976L3.11188 96.506C-6.99353 126.823 8.26965 159.765 37.9319 171.656C38.3538 170.929 38.8179 170.228 39.3219 169.556L39.3219 169.556Z" transform="matrix(1 -4.1437875E-09 4.1437875E-09 1 0 0)" id="Shape" fill="#FFFFFF" fill-rule="evenodd" stroke="none" />
        <path d="M0 6.51C0 2.91463 2.91463 0 6.51 0C10.1054 0 13.02 2.91463 13.02 6.51C13.02 10.1054 10.1054 13.02 6.51 13.02C2.91463 13.02 0 10.1054 0 6.51Z" transform="matrix(1 -4.1437875E-09 4.1437875E-09 1 54.951874 28.916077)" id="Circle" fill="#000000" fill-opacity="0.2" fill-rule="evenodd" stroke="none" />
        <path d="M0 6.51C0 2.91463 2.91463 0 6.51 0C10.1054 0 13.02 2.91463 13.02 6.51C13.02 10.1054 10.1054 13.02 6.51 13.02C2.91463 13.02 0 10.1054 0 6.51Z" transform="matrix(1 -4.1437875E-09 4.1437875E-09 1 91.97188 41.366028)" id="Circle" fill="#000000" fill-opacity="0.2" fill-rule="evenodd" stroke="none" />
      </g>
      <g id="Soucoupe" transform="translate(183.57999 105.82999)">
        <path d="M286.42 74.85C444.6 74.85 572.84 41.34 572.84 0L0 0C0 41.34 128.24 74.85 286.42 74.85L286.42 74.85Z" transform="translate(0 74.26999)" id="Shape-2" fill="#FFFFFF" fill-rule="evenodd" stroke="none" />
        <path d="M286.42 0C128.24 0 0 33.51 0 74.86L572.84 74.86C572.84 33.51 444.6 0 286.42 0L286.42 0Z" id="Shape" fill="#FFFFFF" fill-rule="evenodd" stroke="none" />
        <path d="M286.42 74.85C444.6 74.85 572.84 41.34 572.84 0L0 0C0 41.34 128.24 74.85 286.42 74.85L286.42 74.85Z" transform="translate(0 74.859985)" id="Shape" fill="#000000" fill-opacity="0.05" fill-rule="evenodd" stroke="none" />
        <path d="M0 19.53L0 17.22C0 12.4648 1.68121 8.40604 5.04362 5.04362C8.40603 1.68121 12.4648 0 17.22 0L256.18 0C260.935 0 264.994 1.68121 268.356 5.04362C271.719 8.40604 273.4 12.4648 273.4 17.22L273.4 21.84C273.4 26.5952 271.719 30.654 268.356 34.0164C264.994 37.3788 260.935 39.06 256.18 39.06L17.22 39.06C12.4648 39.06 8.40603 37.3788 5.04362 34.0164C1.68121 30.654 0 26.5952 0 21.84L0 19.53Z" transform="translate(149.72 55.320007)" id="Rectangle" fill="#000000" fill-opacity="0.05" fill-rule="evenodd" stroke="none" />
        <path d="M0 7C0 3.13401 15.2223 0 34 0C52.7777 0 68 3.13401 68 7C68 10.866 52.7777 14 34 14C15.2223 14 0 10.866 0 7Z" transform="translate(54.420013 42.600006)" id="Ellipse" fill="#000000" fill-opacity="0.05" fill-rule="evenodd" stroke="none" />
        <path d="M0 7C0 3.13401 15.2223 0 34 0C52.7777 0 68 3.13401 68 7C68 10.866 52.7777 14 34 14C15.2223 14 0 10.866 0 7Z" transform="translate(54.420013 95.600006)" id="Ellipse" fill="#000000" fill-opacity="0.05" fill-rule="evenodd" stroke="none" />
        <path d="M0 7C0 3.13401 15.2223 0 34 0C52.7777 0 68 3.13401 68 7C68 10.866 52.7777 14 34 14C15.2223 14 0 10.866 0 7Z" transform="translate(441.42 42.600006)" id="Ellipse" fill="#000000" fill-opacity="0.05" fill-rule="evenodd" stroke="none" />
        <path d="M0 7C0 3.13401 15.2223 0 34 0C52.7777 0 68 3.13401 68 7C68 10.866 52.7777 14 34 14C15.2223 14 0 10.866 0 7Z" transform="translate(441.42 95.600006)" id="Ellipse" fill="#000000" fill-opacity="0.05" fill-rule="evenodd" stroke="none" />
        <path d="M0 7C0 3.13401 15.2223 0 34 0C52.7777 0 68 3.13401 68 7C68 10.866 52.7777 14 34 14C15.2223 14 0 10.866 0 7Z" transform="translate(252.42001 12.600006)" id="Ellipse" fill="#000000" fill-opacity="0.05" fill-rule="evenodd" stroke="none" />
        <path d="M0 7C0 3.13401 15.2223 0 34 0C52.7777 0 68 3.13401 68 7C68 10.866 52.7777 14 34 14C15.2223 14 0 10.866 0 7Z" transform="translate(252.42001 116.600006)" id="Ellipse" fill="#000000" fill-opacity="0.05" fill-rule="evenodd" stroke="none" />
      </g>
      <g id="Stars" transform="translate(38 0.0014343262)">
        <g id="section2">
          <path d="M12.2886 6.80856C10.5784 6.06227 9.69749 4.15423 10.2386 2.36856C10.2805 2.23533 10.3074 2.09779 10.3186 1.95855L10.3186 1.95855C10.371 1.14582 9.88289 0.395321 9.11873 0.113674C8.35457 -0.167988 7.49614 0.0862083 7.00856 0.738552L7.00856 0.738552C6.92848 0.850597 6.86137 0.971371 6.80855 1.09854C6.06575 2.81205 4.15459 3.69447 2.36855 3.14856C2.23506 3.10763 2.09764 3.08082 1.95857 3.06854L1.95854 3.06855C1.14583 3.01614 0.39534 3.50424 0.113663 4.2684C-0.167984 5.03256 0.0862274 5.89097 0.738541 6.37855L0.738541 6.37855C0.849014 6.46376 0.969986 6.53434 1.09853 6.58856C2.80864 7.33485 3.68959 9.24289 3.14851 11.0286C3.1075 11.1586 3.08067 11.2927 3.06853 11.4286L3.06853 11.4286C3.01109 12.2432 3.49751 12.9982 4.26305 13.2827C5.02858 13.5672 5.89003 13.313 6.37852 12.6585L6.37852 12.6586C6.46068 12.5443 6.52791 12.4199 6.57854 12.2886C7.3394 10.5946 9.24571 9.73591 11.0185 10.2886C11.1521 10.3295 11.2895 10.3563 11.4285 10.3686L11.4285 10.3686C12.2413 10.421 12.9918 9.93287 13.2735 9.16871C13.5551 8.40455 13.3009 7.54614 12.6486 7.05856L12.6485 7.05856C12.5404 6.9593 12.4193 6.87521 12.2886 6.80856L12.2886 6.80856Z" transform="translate(121.60144 51)" id="Shape" fill="#4D8AF0" fill-opacity="0.5" fill-rule="evenodd" stroke="none" />
          <path d="M12.2385 6.80856C10.5479 6.04434 9.69061 4.14114 10.2385 2.36856C10.2805 2.23532 10.3074 2.09778 10.3185 1.95853L10.3185 1.95856C10.371 1.14581 9.88287 0.395325 9.11871 0.113647C8.35455 -0.167999 7.49615 0.0862122 7.00855 0.738525L7.00855 0.738556C6.92847 0.850586 6.86139 0.971374 6.80853 1.09854C6.06567 2.81204 4.15454 3.69446 2.36847 3.14853C2.23505 3.10764 2.09766 3.08084 1.95856 3.06854L1.95856 3.06854C1.14581 3.01614 0.395325 3.50424 0.113709 4.2684C-0.167969 5.03256 0.0862427 5.89096 0.738586 6.37854L0.738586 6.37854C0.84906 6.46378 0.970032 6.53433 1.09857 6.58856C2.78918 7.35281 3.64648 9.25601 3.09857 11.0286C3.05762 11.1586 3.03076 11.2927 3.01862 11.4285L3.01855 11.4285C2.96112 12.2432 3.44751 12.9983 4.21307 13.2827C4.97864 13.5672 5.84009 13.313 6.32855 12.6586L6.32855 12.6585C6.41077 12.5442 6.47803 12.4199 6.52863 12.2885C7.28949 10.5946 9.19574 9.73593 10.9686 10.2885C11.1021 10.3294 11.2394 10.3562 11.3785 10.3685L11.3785 10.3685C12.1913 10.4209 12.9418 9.93283 13.2234 9.16867C13.5051 8.40451 13.2509 7.54611 12.5985 7.05853L12.5985 7.05853C12.4904 6.95929 12.3693 6.87521 12.2385 6.80856L12.2385 6.80856Z" transform="translate(630.6515 357)" id="Shape" fill="#4D8AF0" fill-opacity="0.5" fill-rule="evenodd" stroke="none" />
          <path d="M12.2886 6.8085C10.5784 6.06223 9.69749 4.1542 10.2386 2.3685C10.2805 2.2352 10.3074 2.09769 10.3186 1.95847L10.3186 1.95853C10.3709 1.14578 9.88285 0.395294 9.11869 0.113678C8.35453 -0.167999 7.49613 0.0862122 7.00855 0.738556L7.00855 0.738556C6.92847 0.850616 6.86138 0.971405 6.80856 1.09854C6.06573 2.8121 4.15456 3.69449 2.36855 3.14859C2.23505 3.10764 2.09763 3.08078 1.95855 3.06851L1.95855 3.06851C1.14582 3.01614 0.395317 3.50424 0.11367 4.2684C-0.167992 5.03256 0.0862045 5.89096 0.738548 6.37857L0.738548 6.37851C0.849022 6.46378 0.970024 6.53439 1.09856 6.58859C2.80865 7.33487 3.6896 9.24283 3.14855 11.0285C3.10754 11.1586 3.08071 11.2927 3.06855 11.4286L3.06855 11.4286C3.01113 12.2432 3.49755 12.9983 4.26308 13.2827C5.02862 13.5672 5.89005 13.313 6.37855 12.6585L6.37855 12.6585C6.46073 12.5442 6.52795 12.4199 6.57854 12.2885C7.33941 10.5946 9.24567 9.73593 11.0185 10.2885C11.152 10.3294 11.2895 10.3563 11.4286 10.3686L11.4285 10.3686C12.2413 10.4209 12.9918 9.93283 13.2734 9.16867C13.5551 8.40451 13.3009 7.54611 12.6486 7.0585L12.6485 7.05856C12.5404 6.95926 12.4193 6.87509 12.2886 6.80844L12.2886 6.8085Z" transform="translate(68.60147 499.00006)" id="Shape" fill="#4D8AF0" fill-opacity="0.5" fill-rule="evenodd" stroke="none" />
          <path d="M12.2386 6.80853C10.548 6.04431 9.69067 4.14111 10.2386 2.36853C10.2805 2.23526 10.3074 2.09775 10.3185 1.9585L10.3186 1.95853C10.371 1.14581 9.88288 0.395325 9.11871 0.113678C8.35455 -0.167999 7.49613 0.0862122 7.00855 0.738556L7.00855 0.738525C6.92848 0.850555 6.86138 0.971344 6.80856 1.09851C6.06576 2.81204 4.15458 3.69446 2.36857 3.14856C2.23507 3.10767 2.09764 3.08084 1.95855 3.06854L1.95855 3.06854C1.14582 3.01611 0.39532 3.50421 0.113673 4.26837C-0.167989 5.03256 0.0862074 5.89096 0.738551 6.37854L0.738551 6.37854C0.849009 6.46372 0.970012 6.5343 1.09855 6.5885C2.80868 7.33481 3.68965 9.24286 3.14855 11.0286C3.10754 11.1586 3.08071 11.2927 3.06857 11.4285L3.06855 11.4285C3.01112 12.2432 3.49752 12.9982 4.26307 13.2827C5.02861 13.5672 5.89006 13.313 6.37855 12.6585L6.37855 12.6585C6.46073 12.5443 6.52795 12.4199 6.57855 12.2885C7.33941 10.5946 9.24569 9.7359 11.0185 10.2885C11.152 10.3294 11.2895 10.3563 11.4286 10.3685L11.4286 10.3685C12.2413 10.421 12.9918 9.93286 13.2734 9.1687C13.5551 8.40451 13.3009 7.54611 12.6486 7.05853L12.6486 7.05853C12.5251 6.95529 12.3869 6.87103 12.2386 6.80853L12.2386 6.80853Z" transform="translate(13.651428 168.00003)" id="Shape" fill="#4D8AF0" fill-opacity="0.5" fill-rule="evenodd" stroke="none" />
          <path d="M12.498 6.80856C10.8074 6.04432 9.95013 4.14112 10.498 2.36856C10.54 2.23533 10.5669 2.09779 10.5781 1.95855L10.5781 1.95855C10.6305 1.14582 10.1424 0.395329 9.37823 0.113667C8.61407 -0.167987 7.75568 0.0862163 7.26807 0.738553L7.26807 0.738553C7.18805 0.850598 7.12097 0.971371 7.06812 1.09855C6.30725 2.79255 4.40094 3.65123 2.62805 3.09855C2.49457 3.05764 2.35718 3.03083 2.21808 3.01855L2.21808 3.01855C1.32727 2.83165 0.433655 3.32417 0.115967 4.17715C-0.201721 5.03013 0.152039 5.98721 0.948059 6.42857L0.948059 6.42856C1.05853 6.51376 1.1795 6.58435 1.30804 6.63855C2.99866 7.4028 3.85596 9.306 3.30804 11.0786C3.26703 11.2086 3.24023 11.3427 3.22809 11.4786L3.22803 11.4786C3.14099 12.3262 3.6474 13.1228 4.45197 13.4036C5.25647 13.6845 6.14856 13.3762 6.60803 12.6586L6.60803 12.6586C6.69019 12.5443 6.75745 12.4199 6.80804 12.2886C7.56897 10.5946 9.47522 9.73591 11.2481 10.2886C11.3816 10.3295 11.519 10.3563 11.658 10.3686L11.658 10.3686C12.4708 10.421 13.2213 9.93287 13.5029 9.1687C13.7845 8.40454 13.5303 7.54614 12.878 7.05857L12.878 7.05857C12.7637 6.95778 12.6358 6.87362 12.498 6.80857L12.498 6.80856Z" transform="translate(620.39197 0)" id="Shape" fill="#4D8AF0" fill-opacity="0.5" fill-rule="evenodd" stroke="none" />
          <g id="Group" transform="translate(103 257.84857)" opacity="0.5">
            <path d="M0 0L3 0L3 17L0 17L0 0Z" transform="translate(7 0)" id="Rectangle" fill="#47E6B1" fill-rule="evenodd" stroke="none" />
            <path d="M17 0L17 3L0 3L0 0L17 0Z" transform="translate(0 7)" id="Rectangle" fill="#47E6B1" fill-rule="evenodd" stroke="none" />
          </g>
          <g id="Group" transform="translate(823 177.84857)" opacity="0.5">
            <path d="M0 0L3 0L3 17L0 17L0 0Z" transform="translate(7 0)" id="Rectangle" fill="#47E6B1" fill-rule="evenodd" stroke="none" />
            <path d="M17 0L17 3L0 3L0 0L17 0Z" transform="translate(0 6.9999695)" id="Rectangle" fill="#47E6B1" fill-rule="evenodd" stroke="none" />
          </g>
          <g id="Group" transform="translate(723 456.84857)" opacity="0.5">
            <path d="M0 0L3 0L3 17L0 17L0 0Z" transform="translate(7 0)" id="Rectangle" fill="#47E6B1" fill-rule="evenodd" stroke="none" />
            <path d="M17 0L17 3L0 3L0 0L17 0Z" transform="translate(0 7)" id="Rectangle" fill="#47E6B1" fill-rule="evenodd" stroke="none" />
          </g>
          <path d="M0 6C0 2.68629 2.68629 0 6 0C9.31371 0 12 2.68629 12 6C12 9.31371 9.31371 12 6 12C2.68629 12 0 9.31371 0 6Z" transform="translate(717 75.84857)" id="Circle" fill="#F55F44" fill-opacity="0.5" fill-rule="evenodd" stroke="none" />
          <path d="M0 6C0 2.68629 2.68629 0 6 0C9.31371 0 12 2.68629 12 6C12 9.31371 9.31371 12 6 12C2.68629 12 0 9.31371 0 6Z" transform="translate(0 6.848572)" id="Circle" fill="#F55F44" fill-opacity="0.5" fill-rule="evenodd" stroke="none" />
          <path d="M0 6C0 2.68629 2.68629 0 6 0C9.31371 0 12 2.68629 12 6C12 9.31371 9.31371 12 6 12C2.68629 12 0 9.31371 0 6Z" transform="translate(180 351.84857)" id="Circle" fill="#F55F44" fill-opacity="0.5" fill-rule="evenodd" stroke="none" />
        </g>
        <g id="section1" transform="translate(33.99994 116.85083)">
          <path d="M12.2886 6.80856C10.5784 6.06227 9.69749 4.15423 10.2386 2.36856C10.2805 2.23533 10.3074 2.09779 10.3186 1.95855L10.3186 1.95855C10.371 1.14582 9.88289 0.395321 9.11873 0.113674C8.35457 -0.167988 7.49614 0.0862083 7.00856 0.738552L7.00856 0.738552C6.92848 0.850597 6.86137 0.971371 6.80855 1.09854C6.06575 2.81205 4.15459 3.69447 2.36855 3.14856C2.23506 3.10763 2.09764 3.08082 1.95857 3.06854L1.95854 3.06855C1.14583 3.01614 0.39534 3.50424 0.113663 4.2684C-0.167984 5.03256 0.0862274 5.89097 0.738541 6.37855L0.738541 6.37855C0.849014 6.46376 0.969986 6.53434 1.09853 6.58856C2.80864 7.33485 3.68959 9.24289 3.14851 11.0286C3.1075 11.1586 3.08067 11.2927 3.06853 11.4286L3.06853 11.4286C3.01109 12.2432 3.49751 12.9982 4.26305 13.2827C5.02858 13.5672 5.89003 13.313 6.37852 12.6585L6.37852 12.6586C6.46068 12.5443 6.52791 12.4199 6.57854 12.2886C7.3394 10.5946 9.24571 9.73591 11.0185 10.2886C11.1521 10.3295 11.2895 10.3563 11.4285 10.3686L11.4285 10.3686C12.2413 10.421 12.9918 9.93287 13.2735 9.16871C13.5551 8.40455 13.3009 7.54614 12.6486 7.05856L12.6485 7.05856C12.5404 6.9593 12.4193 6.87521 12.2886 6.80856L12.2886 6.80856Z" transform="matrix(-0.9986295 -0.05233605 0.05233605 -0.9986295 710.77527 458.69266)" id="Shape-2" fill="#4D8AF0" fill-opacity="0.5" fill-rule="evenodd" stroke="none" />
          <path d="M12.2385 6.80856C10.5479 6.04434 9.69061 4.14114 10.2385 2.36856C10.2805 2.23532 10.3074 2.09778 10.3185 1.95853L10.3185 1.95856C10.371 1.14581 9.88287 0.395325 9.11871 0.113647C8.35455 -0.167999 7.49615 0.0862122 7.00855 0.738525L7.00855 0.738556C6.92847 0.850586 6.86139 0.971374 6.80853 1.09854C6.06567 2.81204 4.15454 3.69446 2.36847 3.14853C2.23505 3.10764 2.09766 3.08084 1.95856 3.06854L1.95856 3.06854C1.14581 3.01614 0.395325 3.50424 0.113709 4.2684C-0.167969 5.03256 0.0862427 5.89096 0.738586 6.37854L0.738586 6.37854C0.84906 6.46378 0.970032 6.53433 1.09857 6.58856C2.78918 7.35281 3.64648 9.25601 3.09857 11.0286C3.05762 11.1586 3.03076 11.2927 3.01862 11.4285L3.01855 11.4285C2.96112 12.2432 3.44751 12.9983 4.21307 13.2827C4.97864 13.5672 5.84009 13.313 6.32855 12.6586L6.32855 12.6585C6.41077 12.5442 6.47803 12.4199 6.52863 12.2885C7.28949 10.5946 9.19574 9.73593 10.9686 10.2885C11.1021 10.3294 11.2394 10.3562 11.3785 10.3685L11.3785 10.3685C12.1913 10.4209 12.9418 9.93283 13.2234 9.16867C13.5051 8.40451 13.2509 7.54611 12.5985 7.05853L12.5985 7.05853C12.4904 6.95929 12.3693 6.87521 12.2385 6.80856L12.2385 6.80856Z" transform="matrix(-0.9986295 -0.05233605 0.05233605 -0.9986295 218.43768 126.47034)" id="Shape-3" fill="#4D8AF0" fill-opacity="0.5" fill-rule="evenodd" stroke="none" />
          <path d="M12.2886 6.8085C10.5784 6.06223 9.69749 4.1542 10.2386 2.3685C10.2805 2.2352 10.3074 2.09769 10.3186 1.95847L10.3186 1.95853C10.3709 1.14578 9.88285 0.395294 9.11869 0.113678C8.35453 -0.167999 7.49613 0.0862122 7.00855 0.738556L7.00855 0.738556C6.92847 0.850616 6.86138 0.971405 6.80856 1.09854C6.06573 2.8121 4.15456 3.69449 2.36855 3.14859C2.23505 3.10764 2.09763 3.08078 1.95855 3.06851L1.95855 3.06851C1.14582 3.01614 0.395317 3.50424 0.11367 4.2684C-0.167992 5.03256 0.0862045 5.89096 0.738548 6.37857L0.738548 6.37851C0.849022 6.46378 0.970024 6.53439 1.09856 6.58859C2.80865 7.33487 3.6896 9.24283 3.14855 11.0285C3.10754 11.1586 3.08071 11.2927 3.06855 11.4286L3.06855 11.4286C3.01113 12.2432 3.49755 12.9983 4.26308 13.2827C5.02862 13.5672 5.89005 13.313 6.37855 12.6585L6.37855 12.6585C6.46073 12.5442 6.52795 12.4199 6.57854 12.2885C7.33941 10.5946 9.24567 9.73593 11.0185 10.2885C11.152 10.3294 11.2895 10.3563 11.4286 10.3686L11.4285 10.3686C12.2413 10.4209 12.9918 9.93283 13.2734 9.16867C13.5551 8.40451 13.3009 7.54611 12.6486 7.0585L12.6485 7.05856C12.5404 6.95926 12.4193 6.87509 12.2886 6.80844L12.2886 6.8085Z" transform="matrix(-0.9986295 -0.05233605 0.05233605 -0.9986295 787.1491 14.080368)" id="Shape-4" fill="#4D8AF0" fill-opacity="0.5" fill-rule="evenodd" stroke="none" />
          <path d="M12.2386 6.80853C10.548 6.04431 9.69067 4.14111 10.2386 2.36853C10.2805 2.23526 10.3074 2.09775 10.3185 1.9585L10.3186 1.95853C10.371 1.14581 9.88288 0.395325 9.11871 0.113678C8.35455 -0.167999 7.49613 0.0862122 7.00855 0.738556L7.00855 0.738525C6.92848 0.850555 6.86138 0.971344 6.80856 1.09851C6.06576 2.81204 4.15458 3.69446 2.36857 3.14856C2.23507 3.10767 2.09764 3.08084 1.95855 3.06854L1.95855 3.06854C1.14582 3.01611 0.39532 3.50421 0.113673 4.26837C-0.167989 5.03256 0.0862074 5.89096 0.738551 6.37854L0.738551 6.37854C0.849009 6.46372 0.970012 6.5343 1.09855 6.5885C2.80868 7.33481 3.68965 9.24286 3.14855 11.0286C3.10754 11.1586 3.08071 11.2927 3.06857 11.4285L3.06855 11.4285C3.01112 12.2432 3.49752 12.9982 4.26307 13.2827C5.02861 13.5672 5.89006 13.313 6.37855 12.6585L6.37855 12.6585C6.46073 12.5443 6.52795 12.4199 6.57855 12.2885C7.33941 10.5946 9.24569 9.7359 11.0185 10.2885C11.152 10.3294 11.2895 10.3563 11.4286 10.3685L11.4286 10.3685C12.2413 10.421 12.9918 9.93286 13.2734 9.1687C13.5551 8.40451 13.3009 7.54611 12.6486 7.05853L12.6486 7.05853C12.5251 6.95529 12.3869 6.87103 12.2386 6.80853L12.2386 6.80853Z" transform="matrix(-0.9986295 -0.05233605 0.05233605 -0.9986295 824.7006 347.50262)" id="Shape-5" fill="#4D8AF0" fill-opacity="0.5" fill-rule="evenodd" stroke="none" />
          <path d="M12.498 6.80856C10.8074 6.04432 9.95013 4.14112 10.498 2.36856C10.54 2.23533 10.5669 2.09779 10.5781 1.95855L10.5781 1.95855C10.6305 1.14582 10.1424 0.395329 9.37823 0.113667C8.61407 -0.167987 7.75568 0.0862163 7.26807 0.738553L7.26807 0.738553C7.18805 0.850598 7.12097 0.971371 7.06812 1.09855C6.30725 2.79255 4.40094 3.65123 2.62805 3.09855C2.49457 3.05764 2.35718 3.03083 2.21808 3.01855L2.21808 3.01855C1.32727 2.83165 0.433655 3.32417 0.115967 4.17715C-0.201721 5.03013 0.152039 5.98721 0.948059 6.42857L0.948059 6.42856C1.05853 6.51376 1.1795 6.58435 1.30804 6.63855C2.99866 7.4028 3.85596 9.306 3.30804 11.0786C3.26703 11.2086 3.24023 11.3427 3.22809 11.4786L3.22803 11.4786C3.14099 12.3262 3.6474 13.1228 4.45197 13.4036C5.25647 13.6845 6.14856 13.3762 6.60803 12.6586L6.60803 12.6586C6.69019 12.5443 6.75745 12.4199 6.80804 12.2886C7.56897 10.5946 9.47522 9.73591 11.2481 10.2886C11.3816 10.3295 11.519 10.3563 11.658 10.3686L11.658 10.3686C12.4708 10.421 13.2213 9.93287 13.5029 9.1687C13.7845 8.40454 13.5303 7.54614 12.878 7.05857L12.878 7.05857C12.7637 6.95778 12.6358 6.87362 12.498 6.80857L12.498 6.80856Z" transform="matrix(-0.9986295 -0.05233605 0.05233605 -0.9986295 209.99918 483.51797)" id="Shape-6" fill="#4D8AF0" fill-opacity="0.5" fill-rule="evenodd" stroke="none" />
          <g id="Group-2" transform="matrix(-0.9986295 -0.05233605 0.05233605 -0.9986295 740.177 253.10107)" opacity="0.5">
            <path d="M0 0L3 0L3 17L0 17L0 0Z" transform="matrix(1 -6.0071326E-10 6.0071326E-10 1 7.000183 1.4305115E-06)" id="Rectangle" fill="#47E6B1" fill-rule="evenodd" stroke="none" />
            <path d="M17 0L17 3L0 3L0 0L17 0Z" transform="matrix(1 -6.0071326E-10 6.0071326E-10 1 0 7.0000114)" id="Rectangle" fill="#47E6B1" fill-rule="evenodd" stroke="none" />
          </g>
          <g id="Group-3" transform="matrix(-0.9986295 -0.05233605 0.05233605 -0.9986295 16.976715 295.3095)" opacity="0.5">
            <path d="M0 0L3 0L3 17L0 17L0 0Z" transform="matrix(1 -6.0071326E-10 6.0071326E-10 1 7.0000916 -2.2888184E-05)" id="Rectangle" fill="#47E6B1" fill-rule="evenodd" stroke="none" />
            <path d="M17 0L17 3L0 3L0 0L17 0Z" transform="matrix(1 -6.0071326E-10 6.0071326E-10 1 0 6.9999466)" id="Rectangle" fill="#47E6B1" fill-rule="evenodd" stroke="none" />
          </g>
          <g id="Group-4" transform="matrix(-0.9986295 -0.05233605 0.05233605 -0.9986295 131.44135 21.92546)" opacity="0.5">
            <path d="M0 0L3 0L3 17L0 17L0 0Z" transform="matrix(1 -6.0071326E-10 6.0071326E-10 1 7 0)" id="Rectangle" fill="#47E6B1" fill-rule="evenodd" stroke="none" />
            <path d="M17 0L17 3L0 3L0 0L17 0Z" transform="matrix(1 -6.0071326E-10 6.0071326E-10 1 3.0517578E-05 7.0000305)" id="Rectangle" fill="#47E6B1" fill-rule="evenodd" stroke="none" />
          </g>
          <path d="M0 6C0 2.68629 2.68629 0 6 0C9.31371 0 12 2.68629 12 6C12 9.31371 9.31371 12 6 12C2.68629 12 0 9.31371 0 6Z" transform="matrix(-0.9986295 -0.05233605 0.05233605 -0.9986295 117.493164 402.71732)" id="Circle-2" fill="#F55F44" fill-opacity="0.5" fill-rule="evenodd" stroke="none" />
          <path d="M0 6C0 2.68629 2.68629 0 6 0C9.31371 0 12 2.68629 12 6C12 9.31371 9.31371 12 6 12C2.68629 12 0 9.31371 0 6Z" transform="matrix(-0.9986295 -0.05233605 0.05233605 -0.9986295 829.89935 509.14767)" id="Circle-3" fill="#F55F44" fill-opacity="0.5" fill-rule="evenodd" stroke="none" />
          <path d="M0 6C0 2.68629 2.68629 0 6 0C9.31371 0 12 2.68629 12 6C12 9.31371 9.31371 12 6 12C2.68629 12 0 9.31371 0 6Z" transform="matrix(-0.9986295 -0.05233605 0.05233605 -0.9986295 668.20197 155.20003)" id="Circle-4" fill="#F55F44" fill-opacity="0.5" fill-rule="evenodd" stroke="none" />
        </g>
      </g>
    </g>
  </g>
</svg>